{
  "accessors": [
    {
      "bufferView": 3,
      "componentType": 5126,
      "count": 10797,
      "max": [
        0.6417999863624573,
        0.8352000713348389,
        0.3138996362686157
      ],
      "min": [
        -0.6244000196456909,
        -0.7276000380516052,
        -0.2879997193813324
      ],
      "type": "VEC3"
    },
    {
      "bufferView": 3,
      "byteOffset": 129564,
      "componentType": 5126,
      "count": 10797,
      "max": [
        0.9999889731407166,
        0.9999995231628418,
        1.0
      ],
      "min": [
        -0.9999929070472717,
        -0.9999939203262329,
        -1.0
      ],
      "type": "VEC3"
    },
    {
      "bufferView": 2,
      "componentType": 5126,
      "count": 10797,
      "max": [
        0.9926999807357788,
        0.9990000128746033
      ],
      "min": [
        0.003700000001117587,
        0.004900000058114529
      ],
      "type": "VEC2"
    },
    {
      "bufferView": 1,
      "componentType": 5125,
      "count": 50523,
      "type": "SCALAR"
    },
    {
      "bufferView": 5,
      "componentType": 5126,
      "count": 34,
      "max": [
        1.0,
        0.9627459645271301,
        0.9104351997375488,
        0.0,
        0.41754773259162903,
        1.000000238418579,
        0.9992877840995789,
        0.0,
        0.996384859085083,
        0.9934572577476501,
        1.0,
        0.0,
        0.23463958501815796,
        0.12933975458145142,
        0.7178635597229004,
        1.0
      ],
      "min": [
        -0.9990963935852051,
        -0.9627456068992615,
        -0.9223292469978333,
        0.0,
        -0.19603656232357025,
        -0.9851518869400024,
        -0.9603663086891174,
        0.0,
        -0.9975051879882813,
        -0.19913381338119507,
        -0.7266077399253845,
        0.0,
        -0.18604202568531036,
        -0.6598004698753357,
        -0.17987538874149323,
        1.0
      ],
      "type": "MAT4"
    },
    {
      "bufferView": 0,
      "componentType": 5123,
      "count": 10797,
      "type": "VEC4"
    },
    {
      "bufferView": 4,
      "componentType": 5126,
      "count": 10797,
      "max": [
        1.0,
        0.5,
        0.31275486946105957,
        0.25
      ],
      "min": [
        0.25,
        0.0,
        0.0,
        0.0
      ],
      "type": "VEC4"
    }
  ],
  "asset": {
    "extras": {
      "author": "maristelalamach (https://sketchfab.com/maristelalamach)",
      "license": "CC-BY-4.0 (http://creativecommons.org/licenses/by/4.0/)",
      "source": "https://sketchfab.com/3d-models/crazy-frog-c3ff092c58c243cd9f3c3f6bac71cb03",
      "title": "Crazy Frog"
    },
    "generator": "Sketchfab-14.81.0",
    "version": "2.0"
  },
  "bufferViews": [
    {
      "buffer": 0,
      "byteLength": 86376,
      "byteStride": 8,
      "name": "shortBufferViews",
      "target": 34962
    },
    {
      "buffer": 0,
      "byteLength": 202092,
      "byteOffset": 86376,
      "name": "floatBufferViews",
      "target": 34963
    },
    {
      "buffer": 0,
      "byteLength": 86376,
      "byteOffset": 288468,
      "byteStride": 8,
      "name": "floatBufferViews",
      "target": 34962
    },
    {
      "buffer": 0,
      "byteLength": 259128,
      "byteOffset": 374844,
      "byteStride": 12,
      "name": "floatBufferViews",
      "target": 34962
    },
    {
      "buffer": 0,
      "byteLength": 172752,
      "byteOffset": 633972,
      "byteStride": 16,
      "name": "floatBufferViews",
      "target": 34962
    },
    {
      "buffer": 0,
      "byteLength": 2176,
      "byteOffset": 806724,
      "name": "floatBufferViews"
    }
  ],
  "buffers": [
    {
      "byteLength": 808900,
      "uri": "scene.bin"
    }
  ],
  "images": [
    {
      "uri": "textures/Scene_-_Root_baseColor.png"
    }
  ],
  "materials": [
    {
      "doubleSided": true,
      "name": "Scene_-_Root",
      "pbrMetallicRoughness": {
        "baseColorTexture": {
          "index": 0
        },
        "metallicFactor": 0.0,
        "roughnessFactor": 0.6
      }
    }
  ],
  "meshes": [
    {
      "name": "0",
      "primitives": [
        {
          "attributes": {
            "JOINTS_0": 5,
            "NORMAL": 1,
            "POSITION": 0,
            "TEXCOORD_0": 2,
            "WEIGHTS_0": 6
          },
          "indices": 3,
          "material": 0,
          "mode": 4
        }
      ]
    }
  ],
  "nodes": [
    {
      "children": [
        1
      ],
      "matrix": [
        1.0,
        0.0,
        0.0,
        0.0,
        0.0,
        2.220446049250313e-16,
        -1.0,
        0.0,
        0.0,
        1.0,
        2.220446049250313e-16,
        0.0,
        0.0,
        0.0,
        0.0,
        1.0
      ],
      "name": "Sketchfab_model"
    },
    {
      "children": [
        2
      ],
      "matrix": [
        0.02539999969303608,
        0.0,
        0.0,
        0.0,
        0.0,
        0.0,
        0.02539999969303608,
        0.0,
        0.0,
        -0.02539999969303608,
        0.0,
        0.0,
        0.0,
        0.0,
        0.0,
        1.0
      ],
      "name": "808246e3cdb748f0827398a782983f7b.fbx"
    },
    {
      "children": [
        3
      ],
      "name": "RootNode"
    },
    {
      "children": [
        4
      ],
      "matrix": [
        0.3937007784843445,
        0.0,
        0.0,
        0.0,
        0.0,
        0.39370077848433926,
        6.414200014356385e-08,
        0.0,
        0.0,
        -6.414200014356385e-08,
        0.39370077848433926,
        0.0,
        0.0,
        0.0,
        0.0,
        1.0
      ],
      "name": "Armature"
    },
    {
      "children": [
        5,
        40,
        39
      ],
      "name": "Object_4"
    },
    {
      "children": [
        6
      ],
      "name": "_rootJoint"
    },
    {
      "children": [
        7,
        29,
        34
      ],
      "name": "mixamorig:Hips_00",
      "rotation": [
        5.422138826816081e-08,
        0.0,
        0.0,
        1.0
      ],
      "translation": [
        0.00015668076230213046,
        -0.12933975458145142,
        -0.03893760219216347
      ]
    },
    {
      "children": [
        8
      ],
      "name": "mixamorig:Spine_01",
      "rotation": [
        -0.035315319895744324,
        -0.0,
        0.0,
        0.9993762373924255
      ],
      "translation": [
        0.0,
        0.07298803329467773,
        -0.005164884030818939
      ]
    },
    {
      "children": [
        9
      ],
      "name": "mixamorig:Spine1_02",
      "rotation": [
        2.4002187812152047e-29,
        2.6354888323781855e-12,
        -9.107299903239462e-18,
        1.0
      ],
      "scale": [
        0.9999998211860657,
        0.9999998211860657,
        1.0
      ],
      "translation": [
        0.0,
        0.08536554872989655,
        3.725290298461914e-09
      ]
    },
    {
      "children": [
        10,
        13,
        21
      ],
      "name": "mixamorig:Spine2_03",
      "rotation": [
        4.0978196835794733e-08,
        4.790828275837673e-18,
        7.457881534556066e-11,
        1.0
      ],
      "scale": [
        1.000000238418579,
        0.9999998807907104,
        0.9999999403953552
      ],
      "translation": [
        4.3655745685100555e-11,
        0.09756062924861908,
        6.938893903907228e-18
      ]
    },
    {
      "children": [
        11
      ],
      "name": "mixamorig:Neck_04",
      "rotation": [
        0.01334522757679224,
        -3.624976759448285e-18,
        2.086691639032203e-17,
        0.9999109506607056
      ],
      "scale": [
        1.0,
        1.0,
        0.9999999403953552
      ],
      "translation": [
        -1.4551915228366852e-11,
        0.06398136913776398,
        -0.0032390914857387543
      ]
    },
    {
      "children": [
        12
      ],
      "name": "mixamorig:Head_05",
      "rotation": [
        9.313223969797946e-09,
        8.673615828920387e-19,
        -6.938893076726616e-18,
        1.0
      ],
      "scale": [
        1.0000001192092896,
        1.000000238418579,
        1.0000001192092896
      ],
      "translation": [
        -1.4551915228366852e-11,
        -0.04630199074745178,
        -0.002353016287088394
      ]
    },
    {
      "name": "mixamorig:Head_end_06",
      "rotation": [
        1.862645815364772e-09,
        -6.505214585876675e-19,
        6.938895558268453e-18,
        1.0
      ],
      "scale": [
        0.9999998807907104,
        0.9999998211860657,
        0.9999997615814209
      ],
      "translation": [
        1.0186340659856796e-10,
        0.012230202555656433,
        3.725290298461914e-09
      ]
    },
    {
      "children": [
        14
      ],
      "name": "mixamorig:LeftShoulder_07",
      "rotation": [
        0.5638782978057861,
        0.42683783173561096,
        -0.5632503032684326,
        0.42731723189353943
      ],
      "scale": [
        0.9999998211860657,
        0.9999997019767761,
        0.9999998211860657
      ],
      "translation": [
        0.08443853259086609,
        0.08333630859851837,
        9.406730532646179e-05
      ]
    },
    {
      "children": [
        15
      ],
      "name": "mixamorig:LeftArm_08",
      "rotation": [
        0.3687130808830261,
        -0.061117224395275116,
        0.02430371381342411,
        0.9272133708000183
      ],
      "scale": [
        1.0,
        0.9999998807907104,
        1.0000003576278687
      ],
      "translation": [
        7.450580596923828e-09,
        0.19429969787597656,
        -2.9802322387695313e-08
      ]
    },
    {
      "children": [
        16
      ],
      "name": "mixamorig:LeftForeArm_09",
      "rotation": [
        0.0736720934510231,
        -0.001507981214672327,
        -0.02040592022240162,
        0.9970725774765015
      ],
      "scale": [
        1.0000008344650269,
        1.0000001192092896,
        1.000000238418579
      ],
      "translation": [
        5.587935447692871e-09,
        0.23398727178573608,
        5.960464477539063e-08
      ]
    },
    {
      "children": [
        17
      ],
      "name": "mixamorig:LeftHand_010",
      "rotation": [
        -0.13920454680919647,
        0.8593281507492065,
        -0.37400132417678833,
        -0.319844126701355
      ],
      "scale": [
        0.9999997615814209,
        1.000000238418579,
        1.0000001192092896
      ],
      "translation": [
        1.6763806343078613e-08,
        0.213832825422287,
        1.4901161193847656e-07
      ]
    },
    {
      "children": [
        18
      ],
      "name": "mixamorig:LeftHandIndex1_011",
      "rotation": [
        -0.05388805642724037,
        0.9300768971443176,
        -0.3301635682582855,
        -0.15180596709251404
      ],
      "scale": [
        1.0,
        1.0000003576278687,
        0.9999998807907104
      ],
      "translation": [
        -5.960464477539063e-08,
        0.11182498931884766,
        7.450580596923828e-09
      ]
    },
    {
      "children": [
        19
      ],
      "name": "mixamorig:LeftHandIndex2_012",
      "rotation": [
        -4.4703526214107114e-07,
        -4.842874545829545e-07,
        -7.152560215217818e-07,
        1.0
      ],
      "scale": [
        0.9999998211860657,
        0.9999998807907104,
        0.9999998211860657
      ],
      "translation": [
        4.470348358154297e-08,
        0.03811544179916382,
        -2.9802322387695313e-08
      ]
    },
    {
      "children": [
        20
      ],
      "name": "mixamorig:LeftHandIndex3_013",
      "rotation": [
        4.6193611069611507e-07,
        2.980245028538775e-08,
        2.6822092991096724e-07,
        1.0
      ],
      "scale": [
        0.9999998807907104,
        0.9999997615814209,
        0.9999999403953552
      ],
      "translation": [
        -0.006355226039886475,
        0.0616876482963562,
        0.01604427397251129
      ]
    },
    {
      "name": "mixamorig:LeftHandIndex3_end_014",
      "rotation": [
        -1.4901162970204496e-08,
        7.4505820180093e-08,
        -1.4901162970204496e-08,
        1.0
      ],
      "scale": [
        0.9999997615814209,
        0.9999998807907104,
        0.9999999403953552
      ],
      "translation": [
        1.4901161193847656e-08,
        0.06405609846115112,
        7.450580596923828e-08
      ]
    },
    {
      "children": [
        22
      ],
      "name": "mixamorig:RightShoulder_015",
      "rotation": [
        0.5503160953521729,
        -0.43574926257133484,
        0.5752643346786499,
        0.4199356436729431
      ],
      "scale": [
        1.0000001192092896,
        1.0,
        0.9999997615814209
      ],
      "translation": [
        -0.08443844318389893,
        0.0836128443479538,
        -0.0038135387003421783
      ]
    },
    {
      "children": [
        23
      ],
      "name": "mixamorig:RightArm_016",
      "rotation": [
        0.3733558654785156,
        0.08204741775989532,
        -0.03317191079258919,
        0.9234573245048523
      ],
      "scale": [
        1.0000001192092896,
        1.0,
        0.9999998211860657
      ],
      "translation": [
        1.4901161193847656e-08,
        0.19429968297481537,
        -8.940696716308594e-08
      ]
    },
    {
      "children": [
        24
      ],
      "name": "mixamorig:RightForeArm_017",
      "rotation": [
        0.06476959586143494,
        0.004081114660948515,
        0.06275033205747604,
        0.9959169626235962
      ],
      "scale": [
        1.000000238418579,
        1.0000004768371582,
        1.0
      ],
      "translation": [
        -1.862645149230957e-09,
        0.23449422419071198,
        5.960464477539063e-08
      ]
    },
    {
      "children": [
        25
      ],
      "name": "mixamorig:RightHand_018",
      "rotation": [
        -0.1799846589565277,
        0.013712944462895393,
        -0.07472271472215652,
        0.9807313680648804
      ],
      "scale": [
        1.0000001192092896,
        1.000000238418579,
        1.0000004768371582
      ],
      "translation": [
        -3.469446951953614e-18,
        0.21254020929336548,
        1.1920928955078125e-07
      ]
    },
    {
      "children": [
        26
      ],
      "name": "mixamorig:RightHandIndex1_019",
      "rotation": [
        0.16923657059669495,
        -0.018485426902770996,
        -0.10700038820505142,
        0.979575514793396
      ],
      "scale": [
        1.0000004768371582,
        1.000000238418579,
        1.0
      ],
      "translation": [
        1.4901161193847656e-08,
        0.1374826431274414,
        2.9802322387695313e-08
      ]
    },
    {
      "children": [
        27
      ],
      "name": "mixamorig:RightHandIndex2_020",
      "rotation": [
        5.960467319710006e-08,
        9.769969392964956e-15,
        1.6391281576488836e-07,
        1.0
      ],
      "scale": [
        0.9999996423721313,
        0.9999995231628418,
        0.9999997019767761
      ],
      "translation": [
        1.4901161193847656e-08,
        0.03812515735626221,
        1.7881393432617188e-07
      ]
    },
    {
      "children": [
        28
      ],
      "name": "mixamorig:RightHandIndex3_021",
      "rotation": [
        2.2351740369686013e-07,
        -4.76837158203125e-07,
        1.490126777525802e-08,
        1.0
      ],
      "translation": [
        -0.006982967257499695,
        0.05217462778091431,
        0.01757282018661499
      ]
    },
    {
      "name": "mixamorig:RightHandIndex3_end_022",
      "rotation": [
        -4.470348713425665e-08,
        -7.450581485102248e-09,
        5.960463056453591e-08,
        1.0
      ],
      "scale": [
        1.0000001192092896,
        0.9999999403953552,
        1.0
      ],
      "translation": [
        4.470348358154297e-08,
        0.055495619773864746,
        -5.960464477539063e-08
      ]
    },
    {
      "children": [
        30
      ],
      "name": "mixamorig:LeftUpLeg_023",
      "rotation": [
        -0.004548127297312021,
        0.2138056755065918,
        0.9766450524330139,
        0.02076314203441143
      ],
      "scale": [
        1.0,
        1.000000238418579,
        1.0000003576278687
      ],
      "translation": [
        0.20149961113929749,
        -0.03851057589054108,
        0.02526748925447464
      ]
    },
    {
      "children": [
        31
      ],
      "name": "mixamorig:LeftLeg_024",
      "rotation": [
        -0.31031596660614014,
        -0.015003805980086327,
        -0.004898284561932087,
        0.9505024552345276
      ],
      "scale": [
        0.9999995827674866,
        0.9999996423721313,
        0.9999998807907104
      ],
      "translation": [
        0.0,
        0.2707241177558899,
        -1.4901161193847656e-08
      ]
    },
    {
      "children": [
        32
      ],
      "name": "mixamorig:LeftFoot_025",
      "rotation": [
        0.6188526153564453,
        -0.05365291237831116,
        0.04243100807070732,
        0.7825230956077576
      ],
      "scale": [
        1.0000003576278687,
        1.000000238418579,
        1.0000004768371582
      ],
      "translation": [
        4.470348358154297e-08,
        0.22249847650527954,
        0.0
      ]
    },
    {
      "children": [
        33
      ],
      "name": "mixamorig:LeftToeBase_026",
      "rotation": [
        0.2136160135269165,
        0.035979077219963074,
        -0.00787314772605896,
        0.9762231707572937
      ],
      "scale": [
        1.0,
        1.0,
        1.0000003576278687
      ],
      "translation": [
        1.4901161193847656e-08,
        0.1976947784423828,
        1.1920928955078125e-07
      ]
    },
    {
      "name": "mixamorig:LeftToeBase_end_027",
      "rotation": [
        2.79396972224788e-09,
        2.846028893316859e-19,
        -1.3096726481087728e-10,
        1.0
      ],
      "scale": [
        0.9999997615814209,
        0.999999463558197,
        0.9999997615814209
      ],
      "translation": [
        1.4901161193847656e-08,
        0.19769471883773804,
        5.960464477539063e-08
      ]
    },
    {
      "children": [
        35
      ],
      "name": "mixamorig:RightUpLeg_028",
      "rotation": [
        0.0033957739360630512,
        0.15165281295776367,
        0.9881818890571594,
        -0.022054804489016533
      ],
      "scale": [
        1.0000004768371582,
        1.0000009536743164,
        1.0000038146972656
      ],
      "translation": [
        -0.21289438009262085,
        -0.029247507452964783,
        -0.03402009606361389
      ]
    },
    {
      "children": [
        36
      ],
      "name": "mixamorig:RightLeg_029",
      "rotation": [
        -0.23194441199302673,
        0.014519882388412952,
        0.0034628938883543015,
        0.9726145267486572
      ],
      "scale": [
        1.0,
        1.0000004768371582,
        1.0000004768371582
      ],
      "translation": [
        4.470348358154297e-08,
        0.25784921646118164,
        1.4901161193847656e-08
      ]
    },
    {
      "children": [
        37
      ],
      "name": "mixamorig:RightFoot_030",
      "rotation": [
        0.5975031852722168,
        0.056250084191560745,
        -0.04207597300410271,
        0.7987837195396423
      ],
      "scale": [
        0.9999999403953552,
        1.000000238418579,
        0.9999999403953552
      ],
      "translation": [
        -1.4901161193847656e-08,
        0.22100210189819336,
        -2.2351741790771484e-08
      ]
    },
    {
      "children": [
        38
      ],
      "name": "mixamorig:RightToeBase_031",
      "rotation": [
        0.22195006906986237,
        -0.03514439985156059,
        0.008005513809621334,
        0.9743915796279907
      ],
      "scale": [
        1.0000003576278687,
        1.0000003576278687,
        1.0000001192092896
      ],
      "translation": [
        1.4901161193847656e-08,
        0.19051438570022583,
        -2.384185791015625e-07
      ]
    },
    {
      "name": "mixamorig:RightToeBase_end_032",
      "rotation": [
        9.313222415485711e-10,
        -5.587936335871291e-09,
        -1.580338349072008e-08,
        1.0
      ],
      "scale": [
        0.9999998807907104,
        1.0000001192092896,
        0.9999999403953552
      ],
      "translation": [
        -1.4901161193847656e-08,
        0.19051454961299896,
        -2.384185791015625e-07
      ]
    },
    {
      "matrix": [
        0.3937007784843445,
        -7.333250118257694e-10,
        0.0,
        0.0,
        7.333250118257695e-10,
        0.3937007784843445,
        2.0494037758396908e-07,
        0.0,
        -3.8173128687709207e-16,
        -2.0494037758396908e-07,
        0.3937007784843445,
        0.0,
        1.9323334043974683e-09,
        2.383305997000207e-09,
        -1.0541538735669986e-09,
        1.0
      ],
      "name": "Object_39"
    },
    {
      "mesh": 0,
      "name": "Object_40",
      "skin": 0
    }
  ],
  "samplers": [
    {
      "magFilter": 9729,
      "minFilter": 9987,
      "wrapS": 10497,
      "wrapT": 10497
    }
  ],
  "scene": 0,
  "scenes": [
    {
      "name": "Sketchfab_Scene",
      "nodes": [
        0
      ]
    }
  ],
  "skins": [
    {
      "inverseBindMatrices": 4,
      "joints": [
        5,
        6,
        7,
        8,
        9,
        10,
        11,
        12,
        13,
        14,
        15,
        16,
        17,
        18,
        19,
        20,
        21,
        22,
        23,
        24,
        25,
        26,
        27,
        28,
        29,
        30,
        31,
        32,
        33,
        34,
        35,
        36,
        37,
        38
      ],
      "skeleton": 5
    }
  ],
  "textures": [
    {
      "sampler": 0,
      "source": 0
    }
  ]
}
